# xmcd CD database file
#
# Track frame offsets:
#	150
#	31745
#	56955
#	89201
#	123050
#	150863
#	165332
#	180238
#	207524
#	233675
#	259868
#	290704
#
# Disc length: 4023 seconds
#
# Revision: 4
# Processed by: cddbd v1.5.1PL2 Copyright (c) Steve Scherf et al.
# Submitted via: CD2WAV32(JP) R3.22
#
DISCID=9b0fb50c
DTITLE=Passage Point's Sounds - VOCAL SONG COLLECTION!
DYEAR=2005
DGENRE=Game
TTITLE0=chonki feat. 美里 - Days -live style-
TTITLE1=LUV2 feat. 美里 - The flow -Starlight mix-
TTITLE2=chonki feat. 鈴木ななこ - one small day -K+K 2nd Remix-
TTITLE3=さくち feat. Hathuki - -ep-
TTITLE4=chonki feat. 美里 - 砂漠の砂 -R&B mix-
TTITLE5=卯月緑 feat. 美里 - A night comes ～ moon phase mix
TTITLE6=chonki feat. Hathuki - fly
TTITLE7=プチまりの feat. 響カズラ - Moving go on -そこから見える未来-"90's Mix"
TTITLE8=Shibayan feat. 美里 - tresolution of soul -Psychedelic Trance MIX-
TTITLE9=chonki feat. 鈴木ななこ - be hopeful -Treating 2U Remix-
TTITLE10=如月秋祐 feat. 中恵光城 - X-Chronicle
TTITLE11=Bonus Track
EXTD=
EXTT0=
EXTT1=
EXTT2=
EXTT3=
EXTT4=
EXTT5=
EXTT6=
EXTT7=
EXTT8=
EXTT9=
EXTT10=
EXTT11=
PLAYORDER=
